<svg xmlns="http://www.w3.org/2000/svg" xmlns:xlink="http://www.w3.org/1999/xlink" width="520" height="381" viewBox="0 0 405 297" xmlns:v="https://vecta.io/nano"><style><![CDATA[.B{clip-path:url(#B)}.C{fill:#e9d6b8}.D{fill:#fff}.E{fill:#194866}.F{fill:#abc9eb}.G{fill:#0095ef}.H{fill:#f3aa06}.I{fill:#ffbf0d}.J{fill:#fece40}.K{fill:#2b83fd}.L{fill:#d1dbea}.M{fill:#b0bfde}.N{fill:#dbdac6}.O{fill:#d4ecff}]]></style><defs><path id="A" d="M-36-45h473.727v369H-36z"/></defs><clipPath id="B"><use xlink:href="#A"/></clipPath><path d="M334.042 188.982l-7.418-20.778 13.526-22.1 26.98 31.808-32.86 49.68-3.69-12.745 3.543-25.027a1.7 1.7 0 0 0-.078-.837z" class="B F"/><g class="D"><path d="M357.262 216.18c-1.21-.568-2.727-.527-3.56-.42.617-.182 1.675-.7 1.673-1.95-.002-1.446-1.92-.345-2.455 1.31-.343-1.006-.745-2.02-1.023-2.482-.787-1.306-2.02-.263-1.76.913.153.68.108 1.6 1.962 2.516-.728 0-1.46.117-2.096.433-3.054 1.514-3.17 2.352-1.957 2.67.865.23 3.418-.337 4.342-1.755-.164 1.167-.365 3.155.267 3.897.937 1.097 1.954 1.003 1.937-1.31-.017-2.217-.33-2.52-.353-2.538.017.015 1.077.88 2.153.87 2.193-.02 2.26-1.505.87-2.156zm-4.61.578c-.038-.22.09-.425.3-.462s.395.11.435.328-.088.425-.288.46-.395-.1-.437-.327z" class="B"/><ellipse transform="matrix(.7115 .7027 -.7027 .7115 281.7014 -209.2674)" cx="395.678" cy="238.397" rx=".28" ry=".258" class="B"/></g><path d="M58.083 58.336a2.97 2.97 0 0 1-2.97 2.969h-1.98l-.003 6.93-6.927-6.93-22.767-.006a2.97 2.97 0 0 1-2.97-2.971l.006-24.747a2.97 2.97 0 0 1 2.971-2.969l31.676.008a2.97 2.97 0 0 1 2.97 2.97l-.006 24.748z" class="B G"/><path d="M26.4 39.522h25.736v1.98H26.4zm0 4.95h25.737v1.98H26.4zm.008 4.95h25.738v1.98H26.408z" class="B D"/><path d="M379.094 180.77l-66.172-63.194c-.63-.7-1.31-1.34-2.037-1.945l-.65-.618s-.026.006-.07.026c-3.122-2.335-6.952-3.765-11.147-3.765s-8.028 1.43-11.146 3.765c-.047-.02-.072-.026-.072-.026l-.65.618c-.727.605-1.4 1.244-2.036 1.945L218.94 180.77c-1.46 1.466-2.188 3.382-2.186 5.3v74.774a11.22 11.22 0 0 0 11.219 11.218h142.09a11.22 11.22 0 0 0 11.219-11.218V186.07c-.003-1.918-.73-3.834-2.19-5.3z" class="B H"/><path fill="#2094f1" d="M299.018 238.477c-10.008 0-19.417-3.896-26.492-10.972s-10.974-16.483-10.974-26.492c0-20.656 16.807-37.462 37.466-37.462s37.463 16.806 37.463 37.462a37.21 37.21 0 0 1-10.973 26.492c-7.075 7.075-16.483 10.972-26.5 10.972zm0-74.783c-20.58 0-37.322 16.74-37.322 37.318 0 9.97 3.882 19.343 10.93 26.392s16.422 10.93 26.392 10.93 19.342-3.882 26.39-10.93 10.932-16.42 10.932-26.392c-.002-20.576-16.744-37.318-37.322-37.318z" class="B"/><path fill="#ebf6ff" d="M370.062 249.625v-86.003L328.93 122.49H239.2a11.22 11.22 0 0 0-11.219 11.217v115.92h142.09z" class="B"/><path d="M370.062 272.06H227.97a11.22 11.22 0 0 1-11.219-11.218v-74.787l153.3 86.005z" class="B I"/><path d="M227.97 272.06h142.09a11.22 11.22 0 0 0 11.219-11.218v-74.787l-153.3 86.005z" class="B J"/><path d="M328.93 122.49v29.914c0 6.192 5.022 11.22 11.22 11.22h29.913L328.93 122.49z" class="B G"/><path d="M254.45 171.1h90.965v7.48H254.45zm0 14.956h58.06v7.48h-58.06zm0-29.914h35.133v7.48H254.45z" class="B" fill="#bfe4ff"/><path d="M92.762 48.808a2.69 2.69 0 0 1-2.692-2.69V22.8c0-1.485 1.206-2.7 2.692-2.7h34.08c1.483 0 2.7 1.205 2.7 2.7v23.318a2.69 2.69 0 0 1-2.69 2.69h-34.08z" class="B I"/><path d="M126.84 20.108h-34.08c-1.486 0-2.692 1.205-2.692 2.7v1.4l31.308 24.6h5.464a2.69 2.69 0 0 0 2.69-2.69V22.8c-.001-1.486-1.208-2.69-2.69-2.69z" class="B H"/><path d="M109.8 38.045l19.73-13.725V22.8c0-1.485-1.207-2.7-2.7-2.7h-34.08c-1.486 0-2.692 1.205-2.692 2.7v1.52l19.73 13.725z" class="B J"/><path d="M48.48 90.95a1.56 1.56 0 0 1-1.559-1.56V75.877a1.56 1.56 0 0 1 1.559-1.558h19.748a1.56 1.56 0 0 1 1.559 1.558V89.4a1.56 1.56 0 0 1-1.559 1.56H48.48z" class="B I"/><path d="M68.23 74.32H48.48a1.56 1.56 0 0 0-1.559 1.558v.817l18.14 14.255h3.166a1.56 1.56 0 0 0 1.559-1.56V75.877a1.56 1.56 0 0 0-1.558-1.558z" class="B H"/><path d="M58.356 84.712l11.43-7.952v-.883a1.56 1.56 0 0 0-1.559-1.558H48.48a1.56 1.56 0 0 0-1.559 1.558v.883l11.435 7.952z" class="B J"/><path d="M136.876 133.995a4.77 4.77 0 0 1-4.767-4.765V87.935c0-2.632 2.135-4.765 4.767-4.765h60.355c2.63 0 4.765 2.133 4.765 4.765v41.296a4.77 4.77 0 0 1-4.765 4.765h-60.355z" class="B I"/><path d="M197.23 83.17h-60.355c-2.632 0-4.767 2.133-4.767 4.765v2.496l55.446 43.564h9.676a4.77 4.77 0 0 0 4.765-4.765V87.935c0-2.632-2.135-4.765-4.765-4.765z" class="B H"/><path d="M167.053 114.935l34.943-24.306v-2.694c0-2.632-2.135-4.765-4.765-4.765h-60.355c-2.632 0-4.767 2.133-4.767 4.765v2.694l34.944 24.306z" class="B J"/><path d="M171.47 274.668c-.255.307-.07 1.114-.07 1.114s4.433.493 5.858.16c.37-.087.996-.405 1.585-.744.1-.057.276-.397.37-.452.18-.107.274.07.424-.026l.677-.467c.4-2.033-.128-2.852-.128-2.852s-3.772-1.254-4.48-.38c-1.664 2.06-3.683 2.976-4.237 3.65zm29.225-1.823l.632 3.3h3.368s.188-.468.472-.468c.24 0 .55.468.876.468h8.564s.15-.693-.035-.933c-.093-.123-.656-.338-1.032-.44-1.74-.5-6.716-2.016-7.582-3.678-1.054-2.022-5.263 1.753-5.263 1.753z" class="B" fill="#161711"/><path d="M178.365 131.198c.3 1.165-.12 2.267-.912 2.464h0c-.792.198-1.668-.586-1.958-1.752l-.364-1.465c-.3-1.163.117-2.268.908-2.462h0c.794-.197 1.67.584 1.958 1.75l.368 1.466zm37.07 49.302l9.377 13.173 3.8.06s.01-.2-.815-.65c-.234-.125-1.417-.005-1.605-.227-.25-.292-1.447-.684-1.52-1.203-.514-3.766-.56-9.47-2.48-13.315-3.1-6.186-7 2.005-6.767 2.16z" class="B C"/><path d="M193.562 144.865s5.893 2.14 17.097 15.12c11.59 13.424 9.94 14.274 9.94 14.274l1.664 3.664-5.8 4.447-18.776-21.434-4.136-16.07z" class="B L"/><path d="M192.463 155.1l13.3 14.575 5.343 4.83-1.655-2.822s-1.158-1.675-7.46-9.838c-3.55-4.6-5.3-6.187-7.644-8.292l-1.894 1.546zm26.714 21.002l-3.844 2.585-.884.778 1.983 2.727 3.642-3.82z" class="B M"/><path d="M185.647 142.093c-.177 2.096-1.303 3.912-2.486 3.998h-3.37c-1.188-.086-2.313-1.902-2.5-3.998l-.828-10.368c-.186-2.072.627-6.232 2.42-7.462 1.64-1.093 3.522-1.093 5.164 0 1.795 1.23 2.604 5.4 2.422 7.462l-.832 10.368zm-22.83 34.802l9.02 14.664s-13.414-6.443-12.72-12.44 3.7-2.223 3.7-2.223z" class="B C"/><g class="L"><path d="M194.44 145.367c-1.063-1.75-7.592-2.4-7.592-2.4l-5.266 1.574-6.508-.744-7.227 3.578s-3.182 2.64-.174 12.64 1.852 21.547 1.852 21.547l26.037 1.65c.002 0 2.052-32.625-1.122-37.845z" class="B"/><path d="M172.53 147.352s-3.932-2.222-7.863 2.664c-6.7 8.33-9.945 18.66-10.637 20.66s-1.62 8 1.153 9.774l2.776 1.778 5.783-3.553-.926-1.78-.463-1.107s3.236-7.11 6.705-13.552 3.472-14.883 3.472-14.883z" class="B"/></g><path d="M187.4 136.758c-.54 1.954-1.345 2.42-2.772 2.634l-3.047.405c-1.438.07-2.906-1.835-3.24-3.577-.536-2.876-2.1-5.234-2.635-8.106-.348-1.723.39-3.264 2.486-4.514 1.918-1.118 4.195-3.398 6.24-2.677 2.24.817 3.465 4.22 3.362 5.99l-.394 9.846z" class="B C"/><g class="M"><path d="M180.297 144.314l-2.573 2.8-2.574-3.706 1.543-2.286zm5.65-2.96l-4.95 3.188 2.34 2.808 3.86-4.382z" class="B"/><path transform="matrix(.9993 -.0386 .0386 .9993 -6.1736 7.14)" d="M180.62 144.526h2.2v37.67h-2.2z" class="B"/></g><g class="E"><path d="M180.23 193.537s5.39 28.405 11.865 38.653c6.48 10.25 9.89-1.882 9.89-1.882l-6.422-47.963-20.355-.118c-.001.001 1.938.354 5.02 11.3z" class="B"/><path d="M187.697 182.34l-7 47.702c-2.623 7.984-7.81 1.94-8.735-.72s-2.47-19.84-2.16-34.21l.31-13.427 17.577.655z" class="B"/><path d="M180.297 221.394l1.944 18.83c.68 5.85-.247 19.354-1.327 30.957-.066.71-5.86.174-5.86.174l-3.393-37.842c-3.23-30.95 4.01-17.317 8.635-12.12z" class="B"/></g><path d="M200.06 231.344s-1.62.62-6.785.806c-5.145.185 6.862 41.095 6.862 41.095l7.292-3.146-5.66-40.893-1.7 2.138zM174.658 125.87l1.05 2.244 3.787-4.56c.494-.647 5.568-.703 6.828-.48.916.163 1.023 1.34 1.233 2.02.752 2.442-.323-4.108-.323-4.108s-1.72-3.083-4.943-3.34c-1.783-.144-2.612.894-3.3 2.238-.158.313 1.965-.513 1.596-.558-.092-.01-2.18 1.82-2.245 1.96-.315.696-.657 1.397-1.112 2-1.72 2.313-2.58 2.57-2.58 2.57z" class="B" fill="#163f59"/><path fill="#e2c59c" d="M182.245 127.21l1.4.194-.378.854 1.11.412 1.1 4.304-1.834.132-.283-2.63-1.115-1.322-2.816-.26z" class="B"/><path d="M157.83 181.102l4.988-4.207 1.95 2.664-4.883 3.98z" class="B L"/><g class="C"><path d="M230.064 191.358c1.086.63 3.176 1.55 2.466 1.966l-3.806-1.505-2.008.042-1.165 1.122-.757-1.122c-.503-.126-.865-.27-.627-1.087l-.336-.46c1.506-.292 2.134-.458 2.594-.374l1.88.502c.556.122 1.758.917 1.758.917zm-138.326-9.906s-1.35-.405.598-7.678 6.446-17.512 6.446-17.512l-3.07 17.16c0 .001-1.46 6.515-3.975 8.03z" class="B"/><path d="M96.762 161.855c.832-3.484-.4-5.348-.566-6.842s-.588-3.056-.576-3.044c1.174 1.09.945 2.224 1.25 2.888s.117.47.5-.752c.215-.693-.623-2.196-1.037-3.234-.357-.897-.286-1.392-.286-1.392a14.8 14.8 0 0 0 1.576 2.526c.78 1.648 1.304 3.58 1.353 4.02.09.806-.396 3.15-.99 4.766-.676 1.82-1.82 3.573-1.223 1.065z" class="B"/><path d="M98.867 156.196s.016-2.81-.19-3.35c-.148-.38-1.125-2.04-1.125-2.04s-.1 1.03.266 1.72 1.048 3.67 1.048 3.67z" class="B"/></g><path d="M97.02 165.362c.02 3.626-1.15 9.126-3.38 15.007-.262.7-.53 1.37-.808 2.03-.42 1.01-2.183-.38-2.09-2.237.182-3.594 1.606-7.734 3.63-13.068.346-.912.705-1.8 1.072-2.66.537.267 1.06.58 1.576.927z" class="B N"/><path d="M81.465 143.557a2.11 2.11 0 0 0 1.402 2.633l8.74 2.667-2.463 8.067 17.925-3.35 14.115 4.308c1.113.34 2.29-.287 2.63-1.403l13.965-45.775c.342-1.112-.285-2.292-1.402-2.63L98.063 96.38c-1.113-.34-2.29.29-2.633 1.402l-13.965 45.775z" class="B F"/><g class="D"><path transform="matrix(.9565 .2918 -.2918 .9565 47.2457 -27.4286)" d="M114.288 143.383h2.567v2.567h-2.567z" class="B"/><path d="M116.85 147.07l-3.682-1.124 1.123-3.683 3.682 1.124-1.123 3.683zm-2.08-1.975l1.227.373.377-1.227-1.228-.376-.376 1.23z" class="B"/><path d="M113.947 149.343l-.603-1.135 2.17-1.153.298-.973 1.226.373-.453 1.483z" class="B"/><path transform="matrix(.9563 .2925 -.2925 .9563 46.7179 -26.1073)" d="M109.376 141.886h2.567v2.565h-2.567z" class="B"/><path d="M111.94 145.57l-3.686-1.12 1.125-3.687 3.682 1.124-1.12 3.684zm-2.083-1.976l1.228.373.375-1.227-1.227-.374-.376 1.228z" class="B"/><path d="M109.036 147.844l-.602-1.132 2.17-1.154.296-.975 1.23.375-.454 1.48z" class="B"/><path transform="matrix(-.9565 -.2917 .2917 -.9565 169.0856 245.4931)" d="M101.56 108.858h2.568v2.568h-2.568z" class="B"/><path d="M104.123 112.544l-3.684-1.123 1.125-3.683 3.684 1.123-1.125 3.683zm-2.08-1.976l1.226.375.375-1.228-1.228-.375-.373 1.228z" class="B"/><path d="M102.604 108.726l-1.228-.373.452-1.482 2.64-1.407.602 1.134-2.167 1.155z" class="B"/><path transform="matrix(-.9564 -.2919 .2919 -.9564 178.2215 249.8734)" d="M106.47 110.356h2.57v2.566h-2.57z" class="B"/><path d="M109.034 114.043l-3.684-1.124 1.125-3.684 3.68 1.123-1.122 3.685zm-2.08-1.977l1.23.375.375-1.23-1.23-.374-.375 1.228z" class="B"/><path d="M107.516 110.225l-1.23-.375.455-1.48 2.64-1.406.6 1.135-2.168 1.153z" class="B"/><path transform="matrix(.9565 .2919 -.2919 .9565 40.1205 -27.1262)" d="M97.92 120.254h26.1v1.283h-26.1z" class="B"/><path transform="matrix(.9565 .2918 -.2918 .9565 40.999 -26.69)" d="M96.937 123.476h26.1v1.285h-26.1z" class="B"/><path transform="matrix(.9565 .2919 -.2919 .9565 41.9125 -26.2694)" d="M95.953 126.7h26.098v1.282H95.953z" class="B"/><path transform="matrix(.9565 .2918 -.2918 .9565 42.8032 -25.8392)" d="M94.97 129.923h26.1v1.283h-26.1z" class="B"/><path transform="matrix(.9565 .2919 -.2919 .9565 42.7882 -23.478)" d="M94.303 131.022h11.553v1.283H94.303z" class="B"/></g><g fill="#ff5931"><path d="M86.03 154.574a6.75 6.75 0 0 1-6.328 7.145l-1.88-3.098c-3.72.225-7.076-5.196-7.3-8.915l-.155-2.527a6.75 6.75 0 0 1 6.329-7.144l1.684-.103a6.75 6.75 0 0 1 7.145 6.326l.505 8.316z" class="B"/><path d="M71.443 147.013c-.37.023-.73.075-1.084.14a8.57 8.57 0 0 1 .203 1.356c.272 4.48-2.94 8.38-7.342 9.177.924 4.153 4.815 7.142 9.287 6.87 4.946-.3 8.72-4.47 8.427-9.313s-4.545-8.528-9.49-8.23z" class="B"/></g><path d="M82.578 142.244a13.01 13.01 0 0 1-.048 1.906c-.418 4.367-2.847 7.812-5.694 8.39.03 1.964-.26 3.75-.64 5.277-.434 1.736-2.32 3.66-2.32 3.66-.305 3.05 10.245 6.86 9.973 6.388s-3.023-3.874-4.05-7.09c-.714-2.238-.086-4.16.703-5.507 1.493-1.988 3.825-2.104 3.825-2.104a.79.79 0 0 0 .554-.281c.108-.454.152-.933.123-1.422l-.337-5.554c-.092-1.537-.907-2.86-2.09-3.664z" class="B C"/><g class="N"><path d="M80.242 185.866c-1.138 2.8-7.265 2.8-8.404 0l-6.422-17.56c-1.598-3.934 4.52-5.84 7.623-7.498l2.227-.17 3.262 1.566 1.55-1.674 3.057.107c2.658 0 3.904 2.285 2.764 5.077l-5.656 20.152z" class="B"/><path d="M86.11 162.476l6.462 19.48s.442 1.347-.913.457c-1.902-1.25-6.178-5.788-9.98-14.827-2.787-6.63 2.712-5.482 4.43-5.1z" class="B"/></g><path d="M87.568 236.465l-.8-3.24c-1.06-1.66-2.018-2.592-2.803-2.596-2.96-.018-4.533 10.107 1.525 29.415.338 1.076 5.642 20.496 5.646 19.713.13-15.7-2.48-39.37-3.577-43.292zm-18.138.215l.812-3.24c-.162-1.96-.577-3.232-1.268-3.6-2.6-1.396-8.725 6.828-12.365 26.735-.205 1.107-4.57 20.76-4.197 20.07 7.433-13.83 16.16-35.987 17.018-39.966z" class="B C"/><g fill="#c9c8b6"><path d="M79.514 161.654l-1.2 2.38-4.55-3.186 1.506-1.517z" class="B"/><path d="M79.8 159.885l-.285 1.77 1.207 1.825-.184-2.58z" class="B"/></g><path d="M88.965 242.115c.135-.66.206-1.417.2-2.224-.155-4.517.026-9.104-.706-17.68-.72-8.33-2.358-20.652-5.885-34.903-.34-1.455-.76-2.706-1.235-3.726-3.204-.446-6.463 1.734-9.786 2.674-1.216 2.265-2.277 4.974-3.02 8.244-3.606 14.757-5.415 23.285-6.37 30.443-.967 6.938-1.08 12.505-1.57 16.204 9.167 15.255 18.612-13.135 28.364.97z" class="B E"/><path d="M100.494 279.66s-1.075-.005-3.795.575c-1.592.34-2.705.82-3.467.49-1.258-.545-2.216-6.054-2.39-10.056-.02-.45-2.736-1.497-2.612-1.002 1.632 6.462 1.726 10.552 1.883 11.453.267 1.526.966 2.906 1.712 2.954 1.472.098 8.24-3.006 8.786-3.285s.003-1.33-.116-1.128z" class="B C"/><ellipse transform="matrix(-.9867 -.1625 .1625 -.9867 56.025 566.8075)" cx="51.2" cy="281.112" rx="1.883" ry="7.129" class="B E"/><path d="M50.128 278.796c-.886 2.767-.507 5.494.52 5.662s2.132-1.954 2.475-4.837c.438-3.648.21-5.183 1.392-7.168 1.218-2.045 1.395-4.085 1.13-4.394s-1.645.46-1.827 1.52c-.26 1.522-.926 2.87-1.188 3.286-.727 1.178-1.582 3.057-2.5 5.93z" class="B C"/><path d="M98.874 279.82c1.08 1.476-4.23 2.935-5.714 3.056-1.416.114-2.268.32-2.268.32-.053.022-.104.036-.158.056.014.04.014.087.03.126.38.9.486 2.266 1.93 1.66l9.027-3.8c7.38-3.105-2.87-1.45-2.846-1.42z" class="B E"/><path d="M101.895 192.77c.25-1.05-.4-2.107-1.45-2.356l-8.244-1.967 1.816-7.61-13.232 4.89-41.228-9.832c-1.048-.25-2.104.398-2.354 1.45l-5.295 22.198a1.96 1.96 0 0 0 1.449 2.357l60.89 14.52c1.05.252 2.104-.398 2.355-1.448l5.295-22.2z" class="B G"/><g class="D"><path transform="matrix(.9727 .232 -.232 .9727 47.4437 -12.582)" d="M58.806 194.538h36.84v1.84h-36.84z" class="B"/><path transform="matrix(.9727 .2319 -.2319 .9727 48.1089 -11.2778)" d="M57.855 198.026h28.318v1.838H57.855z" class="B"/><path d="M51.955 196.365l.172-.716a1.31 1.31 0 0 0-.967-1.573l-4.438-1.058c-.7-.166-1.405.268-1.57.968l-.908 3.804c-.166.7.266 1.405.967 1.572l4.438 1.058c.698.167 1.405-.267 1.57-.967l.172-.717 1.6 1.722 1.17-4.905-2.206.812zm-6.7-7.045c-1.572-.376-2.547-1.962-2.174-3.536a2.94 2.94 0 0 1 3.537-2.172 2.94 2.94 0 0 1 2.173 3.533 2.94 2.94 0 0 1-3.536 2.175zm1.06-4.44a1.63 1.63 0 0 0-1.963 1.207c-.2.874.33 1.756 1.208 1.963a1.63 1.63 0 0 0 1.962-1.206 1.63 1.63 0 0 0-1.207-1.964zm-6.09 7.26a1.96 1.96 0 0 1 2.357-1.449l4.44 1.06a1.95 1.95 0 0 1 1.258.972l1.492.355c-.222-1.236-1.152-2.285-2.446-2.596l-4.44-1.058c-1.75-.417-3.512.664-3.928 2.413l-.453 1.903 5.708 1.362.302-1.27-4.44-1.06.15-.633z" class="B"/></g><g class="N"><path d="M65.285 183.27s-1.502-.13-2.613 6.164c-.473 2.686-.733 5.776-.877 8.44-.193 3.574 1.88-.13 1.88-.13l2.18-6.918s1.277-5.543-.57-7.554z" class="B"/><path d="M65.785 164.986C63.05 170.7 63.75 188.34 63.75 188.34s2.704 9.688 5.48-18.2c.83-8.37-2.767-6.572-3.443-5.164z" class="B"/></g><path d="M61.485 211.494l-1.104-1.464-.546-1.396.04-2.433s.36-2.567.843-3.488 1.08-4.75 1.266-5.207 1.63-.42 1.63-.42l-1.17 5.055c-.434 1.58-.275 4.046-.424 4.67-.25 1.07-.742 1.88-.742 1.88l.17-2.167c.078-.447-.465-.297-.465-.297s-.377 2.35-.217 3 .53 1.175.53 1.175l.192 1.092z" class="B C"/><path fill="#4e99ff" d="M356.764 226.822c2.83.712 8.04 3.248 9.133 7.582 1.638 6.508-1.64 16.063 3.548 25.4 1.655 2.977-28.663 6.984-28.663 6.984l-5.852-32.89s7.308-7.14 8.803-7.62c3.095-.996 7.38-.9 13.03.532z" class="B"/><path d="M334.883 233.93c-1.054 2.628-3.714 18.263-.748 21.948.342.427-1.54 1.088-1.2 3.032.058.326.625 1.877.625 1.877l2.423.63 7.32-4.167-1.4-1.707-.663.014s-.628-.584-.453-1.304-1.682-1.882-4.48-14.016c-.826-3.57-1.195-6.888-1.425-6.308z" class="B K"/><path fill="#ecb60d" d="M337.715 255.137l2.166-.478.877-.14c.004.595.482 1.037.482 1.037l-1.68.053-1.967.423-2.38 1.354 2.5-2.25z" class="B"/><path fill="#c4d1e1" d="M340.813 257.158s-1.675-.02-3.102.857c-1.085.667-2.082 2.122-1.087 2.908s2.536 1.52 2.536 1.52 3.813.107 1.653-5.286z" class="B"/><path fill="#e4eef3" d="M336.63 260.98l1.02-.218s3.514-.317 4.013-.046c.5.277 2.11 1.365 2.11 1.365l.33.305s-.78.488-1.84-.252-1.148-.17-1.148-.17l.18.937-.016 1.194.163.504s.15.272.032.374c-.333.29-.666.15-.666.15l-1.068-1.866-.3 2.03s-.146.275-.48.346c-.314.068-.316-.017-.316-.017l-.24-.515a.62.62 0 0 1-.214.353c-.264.21-.635.182-.635.182l.1-2.136-.438 1.085s-.155.27-.48.346l-.45.11.33-4.06z" class="B"/><path d="M354.82 252.618s-2.548 6.46-8.677 8.188c-1.06.3-1.71 1.444-1.198 1.812.655.47 1.553.575 3.1.57 3.203-.006 7.562-1.003 10.577-3.922 4.465-4.317 5.87-6.282 5.418-8.454s-9.2 1.807-9.2 1.807z" class="B C"/><path d="M365.025 232.23c1.297 2.133 2.047 5.557 2.038 10.456-.01 3.793-3.28 10.002-3.782 11.91-.085.317-.285 1.686-.285 1.686l-3.624 3.557-7.276-4.93 2.213-3.395.658.07s.417-1.87.307-2.603c-.114-.727 2.015-10.5 3.065-16.78.605-3.612 5.4-2.087 6.686.027z" class="B K"/><path fill="#4e99ff" d="M358.514 251.463l-2.117-.656-.863-.215c-.055.593-.566.993-.566.993l1.668.194 1.927.586 2.256 1.55-2.305-2.452z" class="B"/><path d="M346.61 260.786l-3.705-1.015s-1.048 1.408-.85 1.758-.002 2.432-.002 2.432l1.794 1.526 1.46-.486s.103-.635-.396-.697.336-.425.6-.576 2.41-1.254 1.1-2.942z" class="B C"/><path fill="#e4eef3" d="M352.287 226.51c.41 1.176-.213 2.474-1.39 2.886l-2.103.737c-1.175.41-2.474-.213-2.886-1.388l-1.87-5.343a2.27 2.27 0 0 1 1.388-2.886l2.103-.737a2.27 2.27 0 0 1 2.885 1.388l1.873 5.343z" class="B"/><path d="M343.117 231.203a1.46 1.46 0 0 0 1.795 1.018l6.342-1.746a1.46 1.46 0 0 0 1.02-1.798l-2.588-9.395c-.215-.776-1.018-1.234-1.796-1.02l-6.342 1.746a1.47 1.47 0 0 0-1.021 1.799l2.6 9.396z" class="B C"/><path fill="#163f59" d="M341.052 223.747s-1.102-.675-1.413-1.192c-.156-.26-.176-1.402.414-2.008s1.4-.006 1.4-.006-.952.94-.946 1.19.555 2.015.555 2.015z" class="B"/><path d="M351.498 223.33s-.036-3.875-.506-4.88c-.464-1.01-.785-1.713-2.11-1.47-1.98.356-1.89.773-2.99.445s-3.18-1.277-3.802-1.26c-1.032.03-2.46.773-2.017 2.607.325 1.356-.43 1.92-.393 1.963.118.145.515.2 1.213.34 2.005.396 3.112.278 4.364-.444s3.56-2.18 4.127-1.265 1.29 4.004 1.475 4.206.455.004.64-.24z" class="B E"/><path d="M350.277 226.7c.07.258.342.412.6.338l1.37-.375a.49.49 0 0 0 .339-.6l-.688-2.504a.49.49 0 0 0-.602-.342l-1.37.378a.49.49 0 0 0-.341.601l.7 2.504zm-8.173 2.25a.49.49 0 0 0 .603.342l1.37-.378c.258-.072.4-.34.338-.6l-.7-2.506c-.07-.26-.338-.4-.6-.34l-1.37.378a.49.49 0 0 0-.341.6l.688 2.503z" class="B C"/><path d="M351.118 224.322l1.36 4.933c.305 1.113.534 3.684-5.764 5.42-3.73 1.025-4.345-1.75-4.594-2.65-.19-.686.02-2.952.307-3.454.01-.017.42 1.526.42 1.526s.364-1.7 2.14-2.2c2.858-.785 3.968.708 5.22.333.962-.293 1.256-2.077.91-3.917z" class="B E"/><path d="M346.83 230.008l-1.958.54a.49.49 0 0 1-.598-.342l-.074-.27 2.895-.8.076.275c.07.26-.082.527-.34.597z" class="B C"/><path fill="#282723" d="M315.894 267.53c.9 2.496 16.724 11.683 22.026 11.137l15.98.763c13.59-1.66 20.02-22.772 20.02-22.772-.542-5.303-13.93 2.38-18.702 4.763-7.558 3.77-12.335 3.962-12.335 3.962-5.057.518-10.916-3.383-17.3-3.52-7.01-.15-11.113 1.733-9.7 5.666z" class="B"/><path fill="#b6c2c9" d="M350.658 264.995c.002-.008.008-.014.012-.02v-.665l-27.506-.5-.012.664s-.004.015 0 .022l.067.124c.344.582.977.7 1.702.713l23.937.435c.726.015 1.36-.078 1.727-.647l.073-.124z" class="B"/><path fill="#d8e5ed" d="M344.027 264.985l.066.122c.105.15.24.263.394.346l4.185.074c.7.014 1.31-.06 1.658-.518l.067-.1c.005-.005.01-.01.015-.018l-.002-.325-6.373-.114-.01.534z" class="B"/><path transform="matrix(.9998 .0183 -.0183 .9998 4.8826 -6.0439)" fill="#879ba6" d="M326.576 264.15h13.746v.47h-13.746z" class="B"/><path d="M343.9 264.162l-3.32-13.582c-.088-.357-.447-.655-.804-.66l-19.3-.35c-.354-.006-.574.275-.488.637l3.32 13.582 20.6.375z" class="B M"/><path d="M356.34 282.947c-1.903.328-3.353-1.883-3.353-1.883l-4.92-3.872 1.042-2.618 9.576 4.305c.001 0-.442 3.744-2.346 4.068z" class="B C"/><path d="M352.98 280.916s-.006.23.362 1.235.816 1.36 1.29 1.503c1.836.54 3.158.268 7.574 1.118s5.74.21 7.03-1.825-.047-3.634-2.2-3.8c-3.118-.233-4.854.12-6.478-.125-1.7-.26-1.81-.64-2.8-1.253-.936-.572-1.796 2.843-.91 3.637.78.697-3.206.803-3.87-.49z" class="B K"/><path d="M353.926 282.88c1.834.54 3.16.27 7.574 1.12s5.74.21 7.033-1.827c.598-.94.627-1.78.277-2.437.972.67 1.3 1.837.428 3.213-1.29 2.034-2.615 2.676-7.03 1.825l-7.574-1.118c-.367-.108-.717-.35-1.026-.9.104.058.21.103.32.135z" class="B D"/><path d="M352.986 280.977c-.007-.042-.007-.06-.007-.06.01.023.03.045.043.068-.01-.004-.024-.004-.036-.007z" class="B C"/><path d="M362.525 282.506c.14.05.268-.215.312-.6.085-.765.253-1.523.5-2.273.13-.374.125-.704-.03-.747s-.404.226-.525.6a10.68 10.68 0 0 0-.483 2.25c-.04.37.073.714.215.77zm-1.37-.25c.152.03.287-.232.328-.583a9.76 9.76 0 0 1 .504-2.141c.123-.352.117-.653-.047-.675s-.42.243-.538.594a9.68 9.68 0 0 0-.477 2.116c-.034.35.084.655.23.7zm-1.435-.065c.156.02.313-.256.367-.62.116-.733.313-1.47.598-2.208.138-.362.14-.667-.034-.676-.168-.01-.438.276-.573.634a10.62 10.62 0 0 0-.57 2.186c-.052.36.055.667.2.685z" class="B D"/><path fill="#323b31" d="M356.006 276.63s-33.8-13.896-35.73-13.916c-6.53-.06-5.032 6.545-1.725 9.653 3.902 3.667 33.578 10.376 33.578 10.376l3.876-6.113z" class="B"/><path d="M342.6 279.042l9.226-8.748-3.933-3.896-10.075 10.6z" class="B C"/><path fill="#3c463b" d="M340.687 272.163s23.48-21.522 25.066-22.165c5.356-2.177 8.68 3.743 8.49 5.79-.245 2.65-24.102 24.206-24.102 24.206l-9.455-7.83z" class="B"/><path d="M326.77 279.727c-.55.507-.642 1.998-.642 1.998s7.835 2.963 10.588 3.016c.714.018 2.002-.27 3.234-.613.208-.056.685-.593.887-.653.376-.11.46.256.782.152l1.45-.533c1.656-3.52 1.095-5.253 1.095-5.253s-3.6 1.03-2.983.225c1.32-1.723-2.45-3.487-3.293-2.57-3.355 3.67-9.53 2.762-11.12 4.23z" class="B K"/><g class="D"><path d="M326.336 280.457l8.48 3.004c4.123.292 7.005-1.174 8.933-2.035a15.92 15.92 0 0 1-.675 1.667c-.02.04-.617.266-1.45.533-.32.104-.406-.262-.782-.152-.202.06-.68.598-.887.653-1.232.342-2.52.63-3.234.613-2.753-.053-10.588-3.016-10.588-3.016s.018-.678.205-1.267zm5.54-2.282c-.074.137.232.296.67.4a14.86 14.86 0 0 1 2.647.8c.428.177.817.215.88.066.056-.15-.238-.433-.66-.602-.86-.342-1.738-.6-2.617-.773-.438-.085-.85-.016-.92.12z" class="B"/><path d="M333.633 277.554c-.066.14.233.336.66.458.868.255 1.725.59 2.56 1.01.4.206.788.27.842.113s-.23-.47-.637-.67c-.83-.408-1.677-.732-2.535-.974-.424-.118-.823-.074-.89.064z" class="B"/><path d="M335.326 277.008c-.063.146.23.37.645.528.84.318 1.666.72 2.465 1.2.396.237.756.323.807.158s-.217-.504-.61-.736a14.93 14.93 0 0 0-2.449-1.164c-.4-.152-.798-.132-.86.014z" class="B"/></g><path d="M244.664 131.755v3.818l-4.296-3.818h-16.702a1.91 1.91 0 0 1-1.909-1.909v-23.862a1.91 1.91 0 0 1 1.909-1.909h26.727a1.91 1.91 0 0 1 1.91 1.909v23.862a1.91 1.91 0 0 1-1.91 1.909h-5.73z" class="B G"/><g class="D"><path d="M228.438 126.028v-.955a5.73 5.73 0 0 1 5.729-5.727h5.73a5.73 5.73 0 0 1 5.726 5.727v.955h-17.184z" class="B"/><circle cx="237.03" cy="112.664" r="3.817" class="B"/></g><path d="M276.253 71.933c0 .95-.78 1.73-1.73 1.73H217.16c-.95 0-1.73-.778-1.73-1.73V57.798l-2.38-2.702 2.38-3.135v-2.27c0-.952.778-1.73 1.73-1.73h57.365c.95 0 1.73.78 1.73 1.73v22.242z" class="B O"/><path d="M219.916 52.02h13.038v2.074h-13.038zm14.814 0h15.813v2.074H234.73zm17.9 0h5.924v2.074h-5.924zm-32.704 5.04h20.743v2.074h-20.743zm22.224 0h3.368v2.074h-3.368zm5.44 0h24.3v2.074h-24.3zm-27.664 5.036h5.334v2.075h-5.334zm7.114 0h21.037v2.075H227.03zm22.518 0H262.1v2.075h-12.553zm-29.632 5.037h26.076v2.074h-26.076zm28.15 0h5.44v2.074h-5.44zm7.81 0h13.928v2.074h-13.928z" class="B F"/><path d="M222.533 90.692c0 .952.777 1.73 1.73 1.73h57.016c.953 0 1.73-.778 1.73-1.73v-2.7l2.378-2.704-2.378-3.134v-2.27c0-.95-.777-1.73-1.73-1.73h-57.016c-.953 0-1.73.78-1.73 1.73v10.8z" class="B O"/><path d="M267.912 84.223h3.7v2.074h-3.7zm-13.33 0h11.852v2.074h-11.852zm-26.372 0h24.298v2.074H228.2zm69.267-7.24c-4.425 0-8.012 3.587-8.012 8.015s3.587 8.015 8.012 8.015a8.02 8.02 0 0 0 8.018-8.015 8.02 8.02 0 0 0-8.018-8.015z" class="B F"/><g class="O"><path d="M300.436 85.445c-.64-.306-1.325-.497-2.026-.58l.073-.5c.154-.1.265-.244.275-.366l.053-.46c.023.02.05.037.084.04.074.007.143-.046.148-.12l.074-.71c.006-.074-.048-.14-.12-.146-.027-.004-.053.003-.08.017l.05-.407c.012-.185.103-.68-.254-.998-.517-.506-1.654-.506-2.17 0-.356.318-.268.813-.252.998l.048.407c-.024-.014-.052-.02-.08-.017-.072.008-.128.072-.12.146l.074.71c.01.074.074.127.146.12.033-.003.065-.02.087-.04l.053.46c.012.122.12.268.278.366l.068.5a6.52 6.52 0 0 0-2.027.581.68.68 0 0 0-.329.606l.074.75c.023.22.2.434.418.473 1.756.28 3.538.28 5.295 0 .207-.04.394-.254.417-.473l.074-.75a.68.68 0 0 0-.331-.606z" class="B"/><circle cx="202.857" cy="54.869" r="8.015" class="B"/></g><path d="M205.814 55.317a6.46 6.46 0 0 0-2.025-.581l.07-.498c.154-.1.265-.246.276-.367l.055-.463c.02.022.05.04.083.043.073.006.14-.047.147-.12l.074-.71c.007-.075-.048-.14-.12-.146a.12.12 0 0 0-.079.016l.05-.407c.01-.185.103-.68-.254-.997-.518-.508-1.653-.508-2.17 0-.358.318-.27.813-.254.997l.048.407a.12.12 0 0 0-.08-.016c-.072.007-.127.07-.12.146l.075.71c.007.073.073.126.145.12.035-.004.065-.02.085-.043l.056.463c.01.12.118.27.276.367l.07.498a6.5 6.5 0 0 0-2.026.581c-.206.108-.35.4-.33.607l.075.75c.023.218.21.435.417.473a16.62 16.62 0 0 0 5.295 0c.206-.038.395-.255.416-.473l.074-.75c.023-.217-.123-.498-.33-.607z" class="B F"/><path fill="#bfe4ff" d="M69.643 8.516a5.73 5.73 0 0 0-5.73 5.728c0 3.167 5.73 9.833 5.73 9.833s5.73-6.666 5.73-9.833c0-3.162-2.568-5.728-5.73-5.728zm-.016 8.162a2.46 2.46 0 0 1-2.459-2.457 2.46 2.46 0 0 1 2.459-2.458 2.46 2.46 0 0 1 2.457 2.458 2.46 2.46 0 0 1-2.457 2.457z" class="B"/><path fill="#89b8d5" d="M104.122 78.646a11.63 11.63 0 0 1-11.614-11.615v-2.903c0-.8.65-1.452 1.45-1.452h2.905c.35 0 .477.13.52.17.2.203.21.546.206 1.09v3.285c.005.546-.007.9-.208 1.092-.04.04-.157.16-.487.167l-.804.02.102.797a6.52 6.52 0 0 0 5.665 5.666l.798.1.018-.803c.01-.33.13-.45.17-.488.176-.174.463-.208.902-.208h3.658c.44 0 .73.034.903.208.044.042.172.17.172.52v2.904c0 .8-.65 1.45-1.45 1.45h-2.905z" class="B"/><g fill="#ff5931"><path d="M162.703 61.06l6.126 6.127V51.87l-6.126 6.128z" class="B"/><path d="M159.64 48.808h-15.316c-1.693 0-3.064 1.37-3.064 3.062v15.317c0 1.692 1.37 3.063 3.064 3.063h15.316c1.7 0 3.063-1.37 3.063-3.063V51.87c-.001-1.69-1.373-3.06-3.063-3.06zm-6.894 12.727l-2.604 2.005v-8.023l5.208 4.012-2.604 2.006z" class="B"/></g></svg>